<svg width="800" height="600" xmlns="http://www.w3.org/2000/svg">
 <g>
  <title>Layer 1</title>
  <path stroke-width="10" d="m114,42c0,1 0,9 0,30c0,35 0,78 0,117c0,31 0,56 0,70c0,10 0,17 0,20c0,2 0.70711,2.29291 0,3c-0.70711,0.70709 -0.77025,-0.02676 -1,-1c-0.51374,-2.17624 -2.20476,-5.98163 -3,-16c-1.34753,-16.97598 -2.50026,-40.00464 -3,-67c-0.50008,-27.01389 -1.3771,-52.09708 1,-76c1.90353,-19.14096 5.80679,-35.0338 8,-47c1.83852,-10.03094 4.76142,-17.14183 9,-24c3.79111,-6.13413 7.53165,-11.51702 13,-16c5.57664,-4.57176 11.31021,-9.06295 17,-12c6.46909,-3.33931 14.01224,-3.44241 22,-3c9.04153,0.50076 16.61717,2.12686 24,8c7.74713,6.16294 14.87842,16.60709 19,27c3.84879,9.70499 5,17 5,23c0,5 -0.36774,9.56392 -4,13c-2.61926,2.47778 -9.37357,7.99342 -20,14c-8.57393,4.84641 -15.19577,7.64886 -19,10c-4.25325,2.62866 -7.07843,4.78986 -10,6c-2.06586,0.85571 -4.93414,2.14429 -7,3c-2.92157,1.21014 -5.0535,1.5405 -7,2c-2.17625,0.51375 -3.85274,1.1731 -5,2c-1.814,1.30745 -3.15224,0.23463 -5,1c-1.30656,0.5412 -3.0535,1.5405 -5,2c-2.17625,0.51375 -4.02675,1.77025 -5,2c-2.17625,0.51375 -2,1 -2,1c-1,0 -1,0 -1,0c-1,0 -1,0 -1,0c-2,0 -5.02997,0.51126 -9,1c-4.09222,0.50377 -7,1 -10,1c-1,0 -2,-1 -2,-1l0,0" id="svg_2" stroke="#000" fill="none"/>
  <path stroke-width="10" d="m247,141c0,0 0,0 0,2c0,6 -0.39102,19.00424 0,37c0.50012,23.0163 1.35378,48.00949 2,70c0.50021,17.02203 1,29 1,38c0,4 0,5 0,5c0,-1 -1,-2 -1,-7c0,-7 0,-20 0,-36c0,-19 0.22148,-39.10364 3,-57c2.34685,-15.11597 6.79663,-28.09315 11,-37c3.81729,-8.08878 8.29361,-14.7265 12,-19c3.276,-3.77727 6.88153,-7.19028 10,-9c3.86798,-2.24469 7.92035,-4.16797 12,-6c4.91257,-2.20607 8,-4 10,-5l1,0" id="svg_3" stroke="#000" fill="none"/>
  <path stroke-width="10" d="m349,135c0,1 0,4 0,10c0,10 0,23 0,33c0,9 1.56049,16.97101 6,22c4.77234,5.40601 12.85159,7.99512 23,9c13.93185,1.37952 29.58847,-3.07678 41,-11c11.67456,-8.10585 20.66382,-18.6631 26,-30c4.58679,-9.74481 6.57809,-20.25974 4,-31c-2.51392,-10.47284 -11.15695,-20.93063 -21,-29c-8.36496,-6.85764 -18.74228,-12.05595 -29,-14c-11.83099,-2.24222 -24,-1 -34,-1c-8,0 -12.31,-0.66251 -15,1c-1.203,0.7435 -2.1391,3.97418 -3,9c-1.19385,6.96956 -3.28473,14.92485 -5,22c-1.20139,4.95547 -1,8 -1,10c0,1 0,1 1,1l0,0l1,0l1,0" id="svg_4" stroke="#000" fill="none"/>
  <path stroke-width="10" d="m495,148c0,0 0,1 0,2c0,4 0,10 0,16c0,4 0,7 0,8c0,1 0.87857,2.49345 4,3c3.94836,0.64073 8.10699,1.91901 12,1c4.35248,-1.02748 10.27539,-5.78577 18,-16c10.37769,-13.72238 19.44739,-34.57178 25,-56c4.08337,-15.75836 5.79443,-26.97697 5,-35c-0.31158,-3.14689 -3,-4 -9,-4c-8,0 -17.09735,-1.46007 -28,0c-11.30087,1.51339 -19.69495,6.14795 -26,12c-5.72449,5.3132 -8.84888,15.04659 -12,25c-2.86334,9.0444 -4,15 -5,19l0,2l0,0" id="svg_5" stroke="#000" fill="none"/>
  <path stroke-width="10" d="m580,213c0,0 0.12701,0.32138 3,-1c5.29749,-2.43649 12.60217,-8.43567 21,-18c10.82147,-12.32462 20.87262,-29.62289 27,-45c4.68231,-11.75058 6.90338,-22.01691 8,-28c0.91925,-5.01547 1,-9 1,-11c0,-1 -1.19031,-1.88152 -3,-5c-2.24469,-3.868 -6.32422,-10.8858 -9,-19c-2.27997,-6.91388 -4.69446,-14.08265 -7,-22c-1.76825,-6.07233 -4.28857,-10.86829 -6,-15c-1.21014,-2.92156 -2,-5 -3,-6c0,0 -1.48627,-0.17625 -2,2c-0.91901,3.893 -2.16028,12.96661 -5,27c-4.23987,20.95288 -7.79779,42.03952 -12,63c-3.81671,19.03767 -7.13513,35.98627 -9,55c-2.15631,21.98523 -2.86719,42.00745 -4,61c-0.89508,15.00662 -1,26 -1,35c0,9 -0.53711,18.15378 2,26c1.65686,5.12396 3.70544,9.34619 6,11c1.81396,1.30746 3.96381,0.88412 7,0c3.95868,-1.15277 8.91888,-4.34082 13,-11c3.97949,-6.49338 6.49902,-15.95331 7,-24c0.3728,-5.9884 0.88104,-13.21539 -1,-19c-2.07446,-6.37939 -6.29352,-12.88138 -9,-20c-2.24762,-5.91171 -5.23175,-11.92767 -7,-18c-1.15277,-3.95868 -1.69257,-7.186 -3,-9c-1.65381,-2.29453 -3.41589,-5.76108 -5,-9c-1.38934,-2.84073 -2.48627,-5.82376 -3,-8c-0.22974,-0.97324 -0.12231,-0.93399 1,1c1.80969,3.11847 4.84937,8.1192 12,17c9.79645,12.16678 22,26 35,39c15,15 31.74469,32.27866 47,46c14.758,13.27408 30.40759,25.95139 46,35c11.604,6.73407 21.78278,10.5687 29,13c3.90735,1.31628 6,1 7,1l0,0" id="svg_6" stroke="#000" fill="none"/>
  <path stroke-width="10" d="m101,361c0,0 0,1 1,1c4,0 11.34613,1.79337 21,-1c10.73979,-3.10757 16.85432,-11.57593 21,-21c3.81999,-8.68375 4.38908,-16.03748 5,-21c0.50377,-4.09222 1,-8 1,-10c0,-1 0,-1 0,0c0,3 -0.1756,6.98544 -1,18c-1.27104,16.98187 -2.31497,41.04227 -5,79c-3.18776,45.06482 -8.14021,82.12726 -13,112c-4.25137,26.13287 -7.69595,44.08746 -11,55c-1.83276,6.05316 -3,9 -4,10c-1,1 -2.29289,0.70709 -3,0c-0.70711,-0.70709 0,-4 0,-8c0,-9 -0.42181,-24.04669 2,-44c3.40795,-28.07819 7.57864,-61.05017 11,-88c2.67163,-21.04428 4.73399,-40.06885 9,-56c3.7662,-14.0647 7.23671,-24.88596 11,-33c3.20432,-6.90884 5.7464,-12.16119 9,-17c2.78995,-4.14923 5.57111,-7.67947 10,-10c2.80109,-1.46762 6,-2 12,-3c6,-1 12.09039,-2.12128 19,-1c6.24289,1.01309 11.04224,5.97604 15,13c5.05412,8.96973 9.8726,22.86078 12,39c1.70392,12.92657 2.25331,25.10046 -3,33c-5.88641,8.85156 -17.97322,12.10919 -30,15c-12.9722,3.11804 -23,4 -29,5l-4,0l-2,0" id="svg_7" stroke="#000" fill="none"/>
  <path stroke-width="10" d="m261,451c-1,0 -1,0 -1,2c0,3 -0.49487,9.02045 0,15c0.50171,6.06201 1.64117,11.55035 6,14c4.69461,2.63831 11.01511,2.42535 17,2c7.05328,-0.50128 14.52621,-4.43567 21,-11c5.48419,-5.56091 10.57974,-13.8905 12,-23c1.70151,-10.91351 2.7637,-23.52188 -1,-33c-3.48172,-8.76801 -9.59692,-14.99982 -16,-17c-6.74942,-2.10837 -16.11533,-1.75 -25,0c-7.14288,1.40692 -14.13202,3.75531 -18,6c-3.11848,1.80972 -4,3 -5,4l0,2" id="svg_8" stroke="#000" fill="none"/>
  <path stroke-width="10" d="m352,451c0,0 0.01804,0.18912 1,0c5.28799,-1.01837 16.05832,-7.85931 28,-20c9.96649,-10.13257 12.79395,-18.08743 15,-23c0.91602,-2.03983 0.7435,-3.203 0,-2c-1.66251,2.69 -3.09586,7.97925 -5,17c-3.15936,14.96725 -6.49976,29.97659 -7,46c-0.56168,17.99121 -0.75,33.1153 1,42c1.40692,7.14288 5,13 8,16c3,3 6.33032,5.10095 8,4c6.35797,-4.19244 8.14398,-21.95258 15,-43c7.15051,-21.95154 12.76907,-42.06348 17,-57c2.84537,-10.0451 5.49347,-15.87857 6,-19c0.32037,-1.97418 0,-2 0,0c0,4 0.04504,10.99561 1,21c1.04953,10.99539 2.91879,25.01276 5,38c1.92496,12.01227 2.49829,20.93799 3,27c0.32993,3.98639 0.30655,6.5412 -1,6c-0.92389,-0.38269 -0.59604,-4.01978 0,-13c1.0022,-15.09955 8.04367,-38.29987 16,-62c7.15186,-21.30377 16.15442,-39.64868 24,-49c3.63586,-4.33365 8,-6 11,-6c2,0 4.8819,3.07278 8,8c3.85614,6.09344 8.50769,15.82895 13,30c5.64532,17.80817 10.19183,38.95914 15,62c4.1665,19.966 8.06586,34.98047 11,45c2.04602,6.98669 2.58582,10.58582 4,12c0.70709,0.70709 1.07343,0.06836 2,-1c3.276,-3.77728 10.73114,-11.53052 24,-33c21.19287,-34.29083 36.2467,-70.90762 47,-100c9.21204,-24.92264 16.34924,-45.89761 20,-59c2.21332,-7.94363 3.48627,-12.82376 4,-15c0.45953,-1.9465 0,-1 0,0c0,4 -2.31287,11.91437 -6,26c-5.46655,20.88339 -10.49377,47.93829 -14,78c-3.4928,29.94662 -4,53 -4,72c0,14 0.06476,22.39783 3,28c2.32056,4.42889 7.97418,6.1391 13,7c6.96954,1.19385 15.01672,1.14044 24,0c7.01477,-0.89056 12,-3 15,-5l3,-2l1,-1" id="svg_9" stroke="#000" fill="none"/>
  <path stroke-width="10" d="m590,443c1,0 6,0 20,0c22,0 44,0 61,0c13,0 21,0 24,0l1,0" id="svg_10" stroke="#000" fill="none"/>
  <path stroke-width="10" d="m392,354c1,0 1,2 1,3c0,2 0.49347,4.87857 1,8c0.48056,2.96127 1,6 1,9c0,3 -0.47427,5.14935 -1,6c-1.17557,1.9021 -4.12704,1.32138 -7,0c-5.29749,-2.43649 -11.65088,-8.31949 -19,-16c-8.85358,-9.25278 -14.08557,-17.96393 -17,-25c-2.06082,-4.97525 -2.30746,-9.186 -1,-11c1.65381,-2.29453 7,-3 13,-3c7,0 15.6442,-0.34653 23,4c7.93741,4.69019 14.6218,12.65231 20,23c4.54208,8.73898 6.49829,15.93796 7,22c0.41241,4.98297 0.58115,9.41885 -1,11c-1.58115,1.58115 -4,2 -5,2c-1,0 -1.4588,-0.69345 -2,-2c-0.38269,-0.92389 -1,-2 -1,-3c0,-1 0.05145,-1.29871 -1,-3c-1.17557,-1.9021 -3,-2 -4,-3l0,-1" id="svg_11" stroke="#000" fill="none"/>
 </g>

</svg>